<?xml version="1.0" standalone="no"?>
<!DOCTYPE svg PUBLIC "-//W3C//DTD SVG 20010904//EN"
 "http://www.w3.org/TR/2001/REC-SVG-20010904/DTD/svg10.dtd">
<svg version="1.0" xmlns="http://www.w3.org/2000/svg"
 width="70.000000pt" height="70.000000pt" viewBox="0 0 70.000000 70.000000"
 preserveAspectRatio="xMidYMid meet">
<metadata>
Created by potrace 1.14, written by Peter Selinger 2001-2017
</metadata>
<g transform="translate(0.000000,70.000000) scale(0.100000,-0.100000)"
fill="#000000" stroke="none">
<path d="M374 543 c-88 -53 -185 -112 -217 -131 -45 -27 -64 -46 -83 -83 -13
-27 -24 -53 -24 -59 0 -18 101 -120 119 -120 9 0 113 60 231 133 179 111 219
140 237 173 37 64 31 84 -36 138 -33 25 -61 46 -64 46 -2 0 -76 -43 -163 -97z"/>
</g>
</svg>
